<mxfile host="app.diagrams.net" agent="Mozilla/5.0 (Windows NT 10.0; Win64; x64) AppleWebKit/537.36 (KHTML, like Gecko) Chrome/138.0.0.0 Safari/537.36" version="27.2.0">
  <diagram name="Page-1" id="74e2e168-ea6b-b213-b513-2b3c1d86103e">
    <mxGraphModel dx="1425" dy="761" grid="1" gridSize="10" guides="1" tooltips="1" connect="1" arrows="1" fold="1" page="1" pageScale="1" pageWidth="1169" pageHeight="1654" background="none" math="0" shadow="0">
      <root>
        <mxCell id="0" />
        <mxCell id="1" parent="0" />
        <mxCell id="77e6c97f196da883-1" value="Pool" style="swimlane;html=1;childLayout=stackLayout;startSize=20;rounded=0;shadow=0;labelBackgroundColor=none;strokeWidth=1;fontFamily=Verdana;fontSize=8;align=center;" parent="1" vertex="1">
          <mxGeometry x="100" y="71" width="1010" height="1510" as="geometry" />
        </mxCell>
        <mxCell id="77e6c97f196da883-2" value="SALES/MARKETING" style="swimlane;html=1;startSize=20;" parent="77e6c97f196da883-1" vertex="1">
          <mxGeometry y="20" width="180" height="1490" as="geometry" />
        </mxCell>
        <mxCell id="77e6c97f196da883-8" value="&lt;span style=&quot;background-color: transparent; color: light-dark(rgb(0, 0, 0), rgb(255, 255, 255));&quot;&gt;Data Leads:&lt;/span&gt;&lt;div&gt;&lt;span style=&quot;background-color: transparent; color: light-dark(rgb(0, 0, 0), rgb(255, 255, 255));&quot;&gt;- Nama&lt;/span&gt;&lt;/div&gt;&lt;div&gt;&lt;span style=&quot;background-color: transparent; color: light-dark(rgb(0, 0, 0), rgb(255, 255, 255));&quot;&gt;- No.Telp/WA&lt;/span&gt;&lt;/div&gt;" style="rounded=1;whiteSpace=wrap;html=1;shadow=0;labelBackgroundColor=none;strokeWidth=1;fontFamily=Verdana;fontSize=8;align=left;spacingTop=2;spacingLeft=2;spacingBottom=2;spacingRight=2;" parent="77e6c97f196da883-2" vertex="1">
          <mxGeometry x="20" y="53" width="100" height="60" as="geometry" />
        </mxCell>
        <mxCell id="77e6c97f196da883-26" style="edgeStyle=orthogonalEdgeStyle;rounded=1;html=1;labelBackgroundColor=none;startArrow=none;startFill=0;startSize=5;endArrow=classicThin;endFill=1;endSize=5;jettySize=auto;orthogonalLoop=1;strokeWidth=1;fontFamily=Verdana;fontSize=8" parent="77e6c97f196da883-1" source="77e6c97f196da883-8" target="77e6c97f196da883-11" edge="1">
          <mxGeometry relative="1" as="geometry" />
        </mxCell>
        <mxCell id="77e6c97f196da883-3" value="AREA MANAGER" style="swimlane;html=1;startSize=20;" parent="77e6c97f196da883-1" vertex="1">
          <mxGeometry x="180" y="20" width="180" height="1490" as="geometry" />
        </mxCell>
        <mxCell id="77e6c97f196da883-11" value="Konfirmasi Data Referal" style="rounded=1;whiteSpace=wrap;html=1;shadow=0;labelBackgroundColor=none;strokeWidth=1;fontFamily=Verdana;fontSize=8;align=center;spacingTop=2;spacingLeft=2;spacingBottom=2;spacingRight=2;" parent="77e6c97f196da883-3" vertex="1">
          <mxGeometry x="30" y="53" width="100" height="60" as="geometry" />
        </mxCell>
        <mxCell id="77e6c97f196da883-4" value="CUSTOMER SERVICE" style="swimlane;html=1;startSize=20;" parent="77e6c97f196da883-1" vertex="1">
          <mxGeometry x="360" y="20" width="190" height="1490" as="geometry" />
        </mxCell>
        <mxCell id="77e6c97f196da883-12" value="Terima Data:&lt;div&gt;- Nama&lt;/div&gt;&lt;div&gt;- No. Telp/WA&lt;/div&gt;&lt;div&gt;- Referensi&lt;/div&gt;&lt;div&gt;-&amp;nbsp;&lt;/div&gt;" style="rounded=1;whiteSpace=wrap;html=1;shadow=0;labelBackgroundColor=none;strokeWidth=1;fontFamily=Verdana;fontSize=8;align=left;spacingTop=2;spacingLeft=2;spacingBottom=2;spacingRight=2;" parent="77e6c97f196da883-4" vertex="1">
          <mxGeometry x="35" y="53" width="120" height="60" as="geometry" />
        </mxCell>
        <mxCell id="77e6c97f196da883-9" value="&lt;span style=&quot;&quot;&gt;Update Data Tracker:&lt;/span&gt;&lt;div style=&quot;&quot;&gt;- Nama&lt;/div&gt;&lt;div style=&quot;&quot;&gt;- No. Telp/WA&lt;/div&gt;&lt;div style=&quot;&quot;&gt;- Referensi&lt;/div&gt;&lt;div style=&quot;&quot;&gt;- Jadwal Instalasi (Tgl/Jam)&lt;/div&gt;" style="rounded=1;whiteSpace=wrap;html=1;shadow=0;labelBackgroundColor=none;strokeWidth=1;fontFamily=Verdana;fontSize=8;align=left;spacingTop=2;spacingBottom=2;spacingLeft=2;spacingRight=2;" parent="77e6c97f196da883-4" vertex="1">
          <mxGeometry x="35" y="159" width="120" height="60" as="geometry" />
        </mxCell>
        <mxCell id="3ZI_s4VnCXpma9ha0Qns-19" value="&lt;span style=&quot;&quot;&gt;Update Data Tracker untuk j&lt;/span&gt;&lt;span style=&quot;background-color: transparent; color: light-dark(rgb(0, 0, 0), rgb(255, 255, 255));&quot;&gt;adwal IKR (Tgl/Jam) baru&lt;/span&gt;" style="rounded=1;whiteSpace=wrap;html=1;shadow=0;labelBackgroundColor=none;strokeWidth=1;fontFamily=Verdana;fontSize=8;align=center;spacingTop=2;spacingBottom=2;spacingLeft=2;spacingRight=2;" vertex="1" parent="77e6c97f196da883-4">
          <mxGeometry x="35" y="277" width="120" height="40" as="geometry" />
        </mxCell>
        <mxCell id="3ZI_s4VnCXpma9ha0Qns-76" style="edgeStyle=orthogonalEdgeStyle;shape=connector;rounded=1;orthogonalLoop=1;jettySize=auto;html=1;exitX=0.5;exitY=1;exitDx=0;exitDy=0;entryX=0.5;entryY=0;entryDx=0;entryDy=0;strokeColor=default;strokeWidth=1;align=center;verticalAlign=middle;fontFamily=Helvetica;fontSize=11;fontColor=default;labelBackgroundColor=default;resizable=0;startArrow=none;startFill=0;startSize=5;endArrow=classicThin;endFill=1;endSize=5;" edge="1" parent="77e6c97f196da883-4" source="3ZI_s4VnCXpma9ha0Qns-60" target="3ZI_s4VnCXpma9ha0Qns-75">
          <mxGeometry relative="1" as="geometry" />
        </mxCell>
        <mxCell id="3ZI_s4VnCXpma9ha0Qns-60" value="Update Data Tracker IKR" style="rounded=1;whiteSpace=wrap;html=1;shadow=0;strokeColor=default;strokeWidth=1;align=center;verticalAlign=middle;spacingLeft=2;spacingRight=2;spacingTop=2;spacingBottom=2;fontFamily=Verdana;fontSize=8;fontColor=default;labelBackgroundColor=none;fillColor=default;" vertex="1" parent="77e6c97f196da883-4">
          <mxGeometry x="35" y="801" width="120" height="30" as="geometry" />
        </mxCell>
        <mxCell id="3ZI_s4VnCXpma9ha0Qns-75" value="Kontak Pelanggan untuk Survey Kepuasan Pelanggan" style="rounded=1;whiteSpace=wrap;html=1;shadow=0;strokeColor=default;strokeWidth=1;align=center;verticalAlign=middle;spacingLeft=2;spacingRight=2;spacingTop=2;spacingBottom=2;fontFamily=Verdana;fontSize=8;fontColor=default;labelBackgroundColor=none;fillColor=default;" vertex="1" parent="77e6c97f196da883-4">
          <mxGeometry x="35" y="859" width="120" height="30" as="geometry" />
        </mxCell>
        <mxCell id="3ZI_s4VnCXpma9ha0Qns-85" value="Update Data Tracker Survey Kepuasan Pelanggan" style="rounded=1;whiteSpace=wrap;html=1;shadow=0;strokeColor=default;strokeWidth=1;align=center;verticalAlign=middle;spacingLeft=2;spacingRight=2;spacingTop=2;spacingBottom=2;fontFamily=Verdana;fontSize=8;fontColor=default;labelBackgroundColor=none;fillColor=default;" vertex="1" parent="77e6c97f196da883-4">
          <mxGeometry x="35" y="979" width="120" height="30" as="geometry" />
        </mxCell>
        <mxCell id="77e6c97f196da883-5" value="CLIENT" style="swimlane;html=1;startSize=20;" parent="77e6c97f196da883-1" vertex="1">
          <mxGeometry x="550" y="20" width="230" height="1490" as="geometry" />
        </mxCell>
        <mxCell id="77e6c97f196da883-13" value="Konfirmasi&lt;div&gt;Jadwal&amp;nbsp;&lt;/div&gt;&lt;div&gt;Instalasi?&lt;/div&gt;" style="rhombus;whiteSpace=wrap;html=1;rounded=0;shadow=0;labelBackgroundColor=none;strokeWidth=1;fontFamily=Verdana;fontSize=8;align=center;" parent="77e6c97f196da883-5" vertex="1">
          <mxGeometry x="75" y="53" width="80" height="60" as="geometry" />
        </mxCell>
        <mxCell id="3ZI_s4VnCXpma9ha0Qns-16" value="Progress IKR&lt;div&gt;dapat di lakukan&amp;nbsp;&lt;/div&gt;&lt;div&gt;sesuai jadwal?&lt;/div&gt;" style="rhombus;whiteSpace=wrap;html=1;rounded=0;shadow=0;labelBackgroundColor=none;strokeWidth=1;fontFamily=Verdana;fontSize=8;align=center;" vertex="1" parent="77e6c97f196da883-5">
          <mxGeometry x="65" y="257" width="100" height="80" as="geometry" />
        </mxCell>
        <mxCell id="3ZI_s4VnCXpma9ha0Qns-50" value="Konfirmasi&amp;nbsp;&lt;div&gt;instalasi&amp;nbsp;&lt;span style=&quot;background-color: transparent; color: light-dark(rgb(0, 0, 0), rgb(255, 255, 255));&quot;&gt;dan layanan&lt;/span&gt;&lt;/div&gt;&lt;div&gt;&lt;span style=&quot;background-color: transparent; color: light-dark(rgb(0, 0, 0), rgb(255, 255, 255));&quot;&gt;sudah sesuai?&lt;/span&gt;&lt;/div&gt;" style="rhombus;whiteSpace=wrap;html=1;rounded=0;shadow=0;labelBackgroundColor=none;strokeWidth=1;fontFamily=Verdana;fontSize=8;align=center;" vertex="1" parent="77e6c97f196da883-5">
          <mxGeometry x="55" y="638" width="100" height="80" as="geometry" />
        </mxCell>
        <mxCell id="3ZI_s4VnCXpma9ha0Qns-81" style="edgeStyle=orthogonalEdgeStyle;shape=connector;rounded=1;orthogonalLoop=1;jettySize=auto;html=1;exitX=1;exitY=0.5;exitDx=0;exitDy=0;entryX=1;entryY=0.5;entryDx=0;entryDy=0;strokeColor=default;strokeWidth=1;align=center;verticalAlign=middle;fontFamily=Helvetica;fontSize=11;fontColor=default;labelBackgroundColor=default;resizable=0;startArrow=none;startFill=0;startSize=5;endArrow=classicThin;endFill=1;endSize=5;" edge="1" parent="77e6c97f196da883-5" source="3ZI_s4VnCXpma9ha0Qns-79" target="3ZI_s4VnCXpma9ha0Qns-80">
          <mxGeometry relative="1" as="geometry" />
        </mxCell>
        <mxCell id="3ZI_s4VnCXpma9ha0Qns-82" value="Ya" style="edgeLabel;html=1;align=center;verticalAlign=middle;resizable=0;points=[];rounded=1;shadow=0;strokeColor=default;strokeWidth=1;spacingLeft=2;spacingRight=2;spacingTop=2;spacingBottom=2;fontFamily=Helvetica;fontSize=11;fontColor=default;labelBackgroundColor=default;fillColor=none;gradientColor=none;" vertex="1" connectable="0" parent="3ZI_s4VnCXpma9ha0Qns-81">
          <mxGeometry x="-0.1477" y="-1" relative="1" as="geometry">
            <mxPoint x="-26" y="-68" as="offset" />
          </mxGeometry>
        </mxCell>
        <mxCell id="3ZI_s4VnCXpma9ha0Qns-79" value="Pelanggan&lt;div&gt;bersedia dilakukan survey kepuasan?&lt;/div&gt;" style="rhombus;whiteSpace=wrap;html=1;rounded=0;shadow=0;labelBackgroundColor=none;strokeWidth=1;fontFamily=Verdana;fontSize=8;align=center;" vertex="1" parent="77e6c97f196da883-5">
          <mxGeometry x="65" y="889" width="105" height="81" as="geometry" />
        </mxCell>
        <mxCell id="3ZI_s4VnCXpma9ha0Qns-80" value="Berikan pertanyaan survey dan informasi kepada pelanggan terkait:&lt;div style=&quot;padding: 2px; margin: 2px;&quot;&gt;- Keramahan teknisi&lt;/div&gt;&lt;div style=&quot;padding: 2px; margin: 2px;&quot;&gt;- Kerapihan teknisi&lt;/div&gt;&lt;div style=&quot;padding: 2px; margin: 2px;&quot;&gt;- Hasil instalasi&lt;/div&gt;&lt;div style=&quot;padding: 2px; margin: 2px;&quot;&gt;- Kualitas sinyal dan jaringan&lt;/div&gt;&lt;div style=&quot;padding: 2px; margin: 2px;&quot;&gt;- Kendala yang terjadi&lt;/div&gt;&lt;div style=&quot;padding: 2px; margin: 2px;&quot;&gt;&lt;span style=&quot;background-color: transparent; color: light-dark(rgb(0, 0, 0), rgb(255, 255, 255));&quot;&gt;- Program referal&lt;/span&gt;&lt;/div&gt;&lt;div style=&quot;padding: 2px; margin: 2px;&quot;&gt;&lt;span style=&quot;background-color: transparent; color: light-dark(rgb(0, 0, 0), rgb(255, 255, 255));&quot;&gt;- Gift untuk google review&lt;/span&gt;&lt;/div&gt;&lt;div style=&quot;padding: 2px; margin: 2px;&quot;&gt;&lt;span style=&quot;background-color: transparent; color: light-dark(rgb(0, 0, 0), rgb(255, 255, 255));&quot;&gt;- Informasi penanganan gangguan&lt;/span&gt;&lt;/div&gt;&lt;div style=&quot;padding: 2px; margin: 2px;&quot;&gt;&lt;span style=&quot;background-color: transparent; color: light-dark(rgb(0, 0, 0), rgb(255, 255, 255));&quot;&gt;- Informasi fitur unggulan&lt;/span&gt;&lt;/div&gt;&lt;div style=&quot;padding: 2px; margin: 2px;&quot;&gt;&lt;span style=&quot;background-color: transparent; color: light-dark(rgb(0, 0, 0), rgb(255, 255, 255));&quot;&gt;- Informasi cara pembayaran&lt;/span&gt;&lt;/div&gt;" style="rounded=1;whiteSpace=wrap;html=1;shadow=0;strokeColor=default;strokeWidth=1;align=left;verticalAlign=top;spacingLeft=2;spacingRight=2;spacingTop=2;spacingBottom=2;fontFamily=Verdana;fontSize=8;fontColor=default;labelBackgroundColor=none;fillColor=default;arcSize=10;spacing=2;" vertex="1" parent="77e6c97f196da883-5">
          <mxGeometry x="37.5" y="1039" width="160" height="191" as="geometry" />
        </mxCell>
        <mxCell id="3ZI_s4VnCXpma9ha0Qns-1" value="" style="edgeStyle=orthogonalEdgeStyle;rounded=0;orthogonalLoop=1;jettySize=auto;html=1;entryX=0;entryY=0.5;entryDx=0;entryDy=0;exitX=1;exitY=0.5;exitDx=0;exitDy=0;" edge="1" parent="77e6c97f196da883-1" source="77e6c97f196da883-11" target="77e6c97f196da883-12">
          <mxGeometry relative="1" as="geometry">
            <mxPoint x="320" y="150" as="sourcePoint" />
          </mxGeometry>
        </mxCell>
        <mxCell id="77e6c97f196da883-29" style="edgeStyle=orthogonalEdgeStyle;rounded=1;html=1;labelBackgroundColor=none;startArrow=none;startFill=0;startSize=5;endArrow=classicThin;endFill=1;endSize=5;jettySize=auto;orthogonalLoop=1;strokeWidth=1;fontFamily=Verdana;fontSize=8" parent="77e6c97f196da883-1" source="77e6c97f196da883-12" target="77e6c97f196da883-13" edge="1">
          <mxGeometry relative="1" as="geometry" />
        </mxCell>
        <mxCell id="3ZI_s4VnCXpma9ha0Qns-52" style="edgeStyle=orthogonalEdgeStyle;shape=connector;rounded=1;orthogonalLoop=1;jettySize=auto;html=1;exitX=0.5;exitY=1;exitDx=0;exitDy=0;entryX=0;entryY=0.5;entryDx=0;entryDy=0;strokeColor=default;strokeWidth=1;align=center;verticalAlign=middle;fontFamily=Helvetica;fontSize=11;fontColor=default;labelBackgroundColor=default;resizable=0;startArrow=none;startFill=0;startSize=5;endArrow=classicThin;endFill=1;endSize=5;" edge="1" parent="77e6c97f196da883-1" source="3ZI_s4VnCXpma9ha0Qns-50" target="3ZI_s4VnCXpma9ha0Qns-51">
          <mxGeometry relative="1" as="geometry" />
        </mxCell>
        <mxCell id="3ZI_s4VnCXpma9ha0Qns-53" value="Ya" style="edgeLabel;html=1;align=center;verticalAlign=middle;resizable=0;points=[];rounded=1;shadow=0;strokeColor=default;strokeWidth=1;spacingLeft=2;spacingRight=2;spacingTop=2;spacingBottom=2;fontFamily=Helvetica;fontSize=11;fontColor=default;labelBackgroundColor=default;fillColor=none;gradientColor=none;" vertex="1" connectable="0" parent="3ZI_s4VnCXpma9ha0Qns-52">
          <mxGeometry x="-0.9249" y="1" relative="1" as="geometry">
            <mxPoint as="offset" />
          </mxGeometry>
        </mxCell>
        <mxCell id="3ZI_s4VnCXpma9ha0Qns-61" style="edgeStyle=orthogonalEdgeStyle;shape=connector;rounded=1;orthogonalLoop=1;jettySize=auto;html=1;exitX=0;exitY=0.5;exitDx=0;exitDy=0;entryX=1;entryY=0.5;entryDx=0;entryDy=0;strokeColor=default;strokeWidth=1;align=center;verticalAlign=middle;fontFamily=Helvetica;fontSize=11;fontColor=default;labelBackgroundColor=default;resizable=0;startArrow=none;startFill=0;startSize=5;endArrow=classicThin;endFill=1;endSize=5;" edge="1" parent="77e6c97f196da883-1" source="3ZI_s4VnCXpma9ha0Qns-58" target="3ZI_s4VnCXpma9ha0Qns-60">
          <mxGeometry relative="1" as="geometry" />
        </mxCell>
        <mxCell id="3ZI_s4VnCXpma9ha0Qns-62" style="edgeStyle=orthogonalEdgeStyle;shape=connector;rounded=1;orthogonalLoop=1;jettySize=auto;html=1;exitX=1;exitY=0.5;exitDx=0;exitDy=0;entryX=0.5;entryY=1;entryDx=0;entryDy=0;strokeColor=default;strokeWidth=1;align=center;verticalAlign=middle;fontFamily=Helvetica;fontSize=11;fontColor=default;labelBackgroundColor=default;resizable=0;startArrow=none;startFill=0;startSize=5;endArrow=classicThin;endFill=1;endSize=5;" edge="1" parent="77e6c97f196da883-1" source="3ZI_s4VnCXpma9ha0Qns-50" target="3ZI_s4VnCXpma9ha0Qns-39">
          <mxGeometry relative="1" as="geometry" />
        </mxCell>
        <mxCell id="3ZI_s4VnCXpma9ha0Qns-63" value="Tidak" style="edgeLabel;html=1;align=center;verticalAlign=middle;resizable=0;points=[];rounded=1;shadow=0;strokeColor=default;strokeWidth=1;spacingLeft=2;spacingRight=2;spacingTop=2;spacingBottom=2;fontFamily=Helvetica;fontSize=11;fontColor=default;labelBackgroundColor=default;fillColor=none;gradientColor=none;" vertex="1" connectable="0" parent="3ZI_s4VnCXpma9ha0Qns-62">
          <mxGeometry x="-0.7064" y="1" relative="1" as="geometry">
            <mxPoint as="offset" />
          </mxGeometry>
        </mxCell>
        <mxCell id="3ZI_s4VnCXpma9ha0Qns-64" style="edgeStyle=orthogonalEdgeStyle;shape=connector;rounded=1;orthogonalLoop=1;jettySize=auto;html=1;entryX=1;entryY=0.5;entryDx=0;entryDy=0;strokeColor=default;strokeWidth=1;align=center;verticalAlign=middle;fontFamily=Helvetica;fontSize=11;fontColor=default;labelBackgroundColor=default;resizable=0;startArrow=none;startFill=0;startSize=5;endArrow=classicThin;endFill=1;endSize=5;" edge="1" parent="77e6c97f196da883-1" source="3ZI_s4VnCXpma9ha0Qns-16" target="3ZI_s4VnCXpma9ha0Qns-19">
          <mxGeometry relative="1" as="geometry" />
        </mxCell>
        <mxCell id="3ZI_s4VnCXpma9ha0Qns-65" value="Tidak" style="edgeLabel;html=1;align=center;verticalAlign=middle;resizable=0;points=[];rounded=1;shadow=0;strokeColor=default;strokeWidth=1;spacingLeft=2;spacingRight=2;spacingTop=2;spacingBottom=2;fontFamily=Helvetica;fontSize=11;fontColor=default;labelBackgroundColor=default;fillColor=none;gradientColor=none;" vertex="1" connectable="0" parent="3ZI_s4VnCXpma9ha0Qns-64">
          <mxGeometry x="-0.4243" relative="1" as="geometry">
            <mxPoint as="offset" />
          </mxGeometry>
        </mxCell>
        <mxCell id="3ZI_s4VnCXpma9ha0Qns-66" style="edgeStyle=orthogonalEdgeStyle;shape=connector;rounded=1;orthogonalLoop=1;jettySize=auto;html=1;exitX=0.5;exitY=0;exitDx=0;exitDy=0;entryX=0.5;entryY=0;entryDx=0;entryDy=0;strokeColor=default;strokeWidth=1;align=center;verticalAlign=middle;fontFamily=Helvetica;fontSize=11;fontColor=default;labelBackgroundColor=default;resizable=0;startArrow=none;startFill=0;startSize=5;endArrow=classicThin;endFill=1;endSize=5;" edge="1" parent="77e6c97f196da883-1" source="77e6c97f196da883-13" target="77e6c97f196da883-11">
          <mxGeometry relative="1" as="geometry" />
        </mxCell>
        <mxCell id="3ZI_s4VnCXpma9ha0Qns-72" value="Tidak" style="edgeLabel;html=1;align=center;verticalAlign=middle;resizable=0;points=[];rounded=1;shadow=0;strokeColor=default;strokeWidth=1;spacingLeft=2;spacingRight=2;spacingTop=2;spacingBottom=2;fontFamily=Helvetica;fontSize=11;fontColor=default;labelBackgroundColor=default;fillColor=none;gradientColor=none;" vertex="1" connectable="0" parent="3ZI_s4VnCXpma9ha0Qns-66">
          <mxGeometry x="-0.763" y="1" relative="1" as="geometry">
            <mxPoint as="offset" />
          </mxGeometry>
        </mxCell>
        <mxCell id="3ZI_s4VnCXpma9ha0Qns-67" style="edgeStyle=orthogonalEdgeStyle;shape=connector;rounded=1;orthogonalLoop=1;jettySize=auto;html=1;exitX=0.5;exitY=1;exitDx=0;exitDy=0;entryX=0.5;entryY=0;entryDx=0;entryDy=0;strokeColor=default;strokeWidth=1;align=center;verticalAlign=middle;fontFamily=Helvetica;fontSize=11;fontColor=default;labelBackgroundColor=default;resizable=0;startArrow=none;startFill=0;startSize=5;endArrow=classicThin;endFill=1;endSize=5;" edge="1" parent="77e6c97f196da883-1" source="77e6c97f196da883-13" target="77e6c97f196da883-9">
          <mxGeometry relative="1" as="geometry" />
        </mxCell>
        <mxCell id="3ZI_s4VnCXpma9ha0Qns-73" value="Ya" style="edgeLabel;html=1;align=center;verticalAlign=middle;resizable=0;points=[];rounded=1;shadow=0;strokeColor=default;strokeWidth=1;spacingLeft=2;spacingRight=2;spacingTop=2;spacingBottom=2;fontFamily=Helvetica;fontSize=11;fontColor=default;labelBackgroundColor=default;fillColor=none;gradientColor=none;" vertex="1" connectable="0" parent="3ZI_s4VnCXpma9ha0Qns-67">
          <mxGeometry x="-0.5859" y="1" relative="1" as="geometry">
            <mxPoint as="offset" />
          </mxGeometry>
        </mxCell>
        <mxCell id="3ZI_s4VnCXpma9ha0Qns-68" style="edgeStyle=orthogonalEdgeStyle;shape=connector;rounded=1;orthogonalLoop=1;jettySize=auto;html=1;exitX=1;exitY=0.5;exitDx=0;exitDy=0;entryX=0;entryY=0.5;entryDx=0;entryDy=0;strokeColor=default;strokeWidth=1;align=center;verticalAlign=middle;fontFamily=Helvetica;fontSize=11;fontColor=default;labelBackgroundColor=default;resizable=0;startArrow=none;startFill=0;startSize=5;endArrow=classicThin;endFill=1;endSize=5;" edge="1" parent="77e6c97f196da883-1" source="77e6c97f196da883-9" target="3ZI_s4VnCXpma9ha0Qns-13">
          <mxGeometry relative="1" as="geometry" />
        </mxCell>
        <mxCell id="3ZI_s4VnCXpma9ha0Qns-69" style="edgeStyle=orthogonalEdgeStyle;shape=connector;rounded=1;orthogonalLoop=1;jettySize=auto;html=1;exitX=0.5;exitY=1;exitDx=0;exitDy=0;strokeColor=default;strokeWidth=1;align=center;verticalAlign=middle;fontFamily=Helvetica;fontSize=11;fontColor=default;labelBackgroundColor=default;resizable=0;startArrow=none;startFill=0;startSize=5;endArrow=classicThin;endFill=1;endSize=5;" edge="1" parent="77e6c97f196da883-1" source="3ZI_s4VnCXpma9ha0Qns-13" target="3ZI_s4VnCXpma9ha0Qns-16">
          <mxGeometry relative="1" as="geometry" />
        </mxCell>
        <mxCell id="3ZI_s4VnCXpma9ha0Qns-70" style="edgeStyle=orthogonalEdgeStyle;shape=connector;rounded=1;orthogonalLoop=1;jettySize=auto;html=1;exitX=1;exitY=0.5;exitDx=0;exitDy=0;strokeColor=default;strokeWidth=1;align=center;verticalAlign=middle;fontFamily=Helvetica;fontSize=11;fontColor=default;labelBackgroundColor=default;resizable=0;startArrow=none;startFill=0;startSize=5;endArrow=classicThin;endFill=1;endSize=5;entryX=0;entryY=0.5;entryDx=0;entryDy=0;" edge="1" parent="77e6c97f196da883-1" source="3ZI_s4VnCXpma9ha0Qns-16" target="3ZI_s4VnCXpma9ha0Qns-26">
          <mxGeometry relative="1" as="geometry">
            <mxPoint x="820" y="316.9655172413793" as="targetPoint" />
          </mxGeometry>
        </mxCell>
        <mxCell id="3ZI_s4VnCXpma9ha0Qns-74" value="Ya" style="edgeLabel;html=1;align=center;verticalAlign=middle;resizable=0;points=[];rounded=1;shadow=0;strokeColor=default;strokeWidth=1;spacingLeft=2;spacingRight=2;spacingTop=2;spacingBottom=2;fontFamily=Helvetica;fontSize=11;fontColor=default;labelBackgroundColor=default;fillColor=none;gradientColor=none;" vertex="1" connectable="0" parent="3ZI_s4VnCXpma9ha0Qns-70">
          <mxGeometry x="-0.4244" y="2" relative="1" as="geometry">
            <mxPoint as="offset" />
          </mxGeometry>
        </mxCell>
        <mxCell id="3ZI_s4VnCXpma9ha0Qns-71" style="edgeStyle=orthogonalEdgeStyle;shape=connector;rounded=1;orthogonalLoop=1;jettySize=auto;html=1;exitX=0;exitY=0.5;exitDx=0;exitDy=0;entryX=0.5;entryY=0;entryDx=0;entryDy=0;strokeColor=default;strokeWidth=1;align=center;verticalAlign=middle;fontFamily=Helvetica;fontSize=11;fontColor=default;labelBackgroundColor=default;resizable=0;startArrow=none;startFill=0;startSize=5;endArrow=classicThin;endFill=1;endSize=5;" edge="1" parent="77e6c97f196da883-1" source="3ZI_s4VnCXpma9ha0Qns-39" target="3ZI_s4VnCXpma9ha0Qns-50">
          <mxGeometry relative="1" as="geometry" />
        </mxCell>
        <mxCell id="77e6c97f196da883-6" value="FTTH ENGINEER" style="swimlane;html=1;startSize=20;" parent="77e6c97f196da883-1" vertex="1">
          <mxGeometry x="780" y="20" width="230" height="1490" as="geometry" />
        </mxCell>
        <mxCell id="3ZI_s4VnCXpma9ha0Qns-13" value="Kontak Calon Pelanggan untuk progres IKR." style="rounded=1;whiteSpace=wrap;html=1;shadow=0;strokeColor=default;strokeWidth=1;align=center;verticalAlign=middle;spacingLeft=2;spacingRight=2;spacingTop=2;spacingBottom=2;fontFamily=Verdana;fontSize=8;fontColor=default;labelBackgroundColor=none;fillColor=default;" vertex="1" parent="77e6c97f196da883-6">
          <mxGeometry x="70" y="169" width="120" height="40" as="geometry" />
        </mxCell>
        <mxCell id="3ZI_s4VnCXpma9ha0Qns-40" style="edgeStyle=orthogonalEdgeStyle;shape=connector;rounded=1;orthogonalLoop=1;jettySize=auto;html=1;exitX=0.5;exitY=1;exitDx=0;exitDy=0;entryX=0.5;entryY=0;entryDx=0;entryDy=0;strokeColor=default;strokeWidth=1;align=center;verticalAlign=middle;fontFamily=Helvetica;fontSize=11;fontColor=default;labelBackgroundColor=default;resizable=0;startArrow=none;startFill=0;startSize=5;endArrow=classicThin;endFill=1;endSize=5;" edge="1" parent="77e6c97f196da883-6" source="3ZI_s4VnCXpma9ha0Qns-26" target="3ZI_s4VnCXpma9ha0Qns-29">
          <mxGeometry relative="1" as="geometry" />
        </mxCell>
        <mxCell id="3ZI_s4VnCXpma9ha0Qns-26" value="Visit Lokasi Client" style="rounded=1;whiteSpace=wrap;html=1;shadow=0;strokeColor=default;strokeWidth=1;align=center;verticalAlign=middle;spacingLeft=2;spacingRight=2;spacingTop=2;spacingBottom=2;fontFamily=Verdana;fontSize=8;fontColor=default;labelBackgroundColor=none;fillColor=default;" vertex="1" parent="77e6c97f196da883-6">
          <mxGeometry x="62" y="282" width="120" height="30" as="geometry" />
        </mxCell>
        <mxCell id="3ZI_s4VnCXpma9ha0Qns-41" style="edgeStyle=orthogonalEdgeStyle;shape=connector;rounded=1;orthogonalLoop=1;jettySize=auto;html=1;exitX=0.5;exitY=1;exitDx=0;exitDy=0;entryX=0.5;entryY=0;entryDx=0;entryDy=0;strokeColor=default;strokeWidth=1;align=center;verticalAlign=middle;fontFamily=Helvetica;fontSize=11;fontColor=default;labelBackgroundColor=default;resizable=0;startArrow=none;startFill=0;startSize=5;endArrow=classicThin;endFill=1;endSize=5;" edge="1" parent="77e6c97f196da883-6" source="3ZI_s4VnCXpma9ha0Qns-29" target="3ZI_s4VnCXpma9ha0Qns-31">
          <mxGeometry relative="1" as="geometry" />
        </mxCell>
        <mxCell id="3ZI_s4VnCXpma9ha0Qns-29" value="Pencarian titik ODP terdekat" style="rounded=1;whiteSpace=wrap;html=1;shadow=0;strokeColor=default;strokeWidth=1;align=center;verticalAlign=middle;spacingLeft=2;spacingRight=2;spacingTop=2;spacingBottom=2;fontFamily=Verdana;fontSize=8;fontColor=default;labelBackgroundColor=none;fillColor=default;" vertex="1" parent="77e6c97f196da883-6">
          <mxGeometry x="62" y="322" width="120" height="30" as="geometry" />
        </mxCell>
        <mxCell id="3ZI_s4VnCXpma9ha0Qns-42" style="edgeStyle=orthogonalEdgeStyle;shape=connector;rounded=1;orthogonalLoop=1;jettySize=auto;html=1;exitX=0.5;exitY=1;exitDx=0;exitDy=0;entryX=0.5;entryY=0;entryDx=0;entryDy=0;strokeColor=default;strokeWidth=1;align=center;verticalAlign=middle;fontFamily=Helvetica;fontSize=11;fontColor=default;labelBackgroundColor=default;resizable=0;startArrow=none;startFill=0;startSize=5;endArrow=classicThin;endFill=1;endSize=5;" edge="1" parent="77e6c97f196da883-6" source="3ZI_s4VnCXpma9ha0Qns-31" target="3ZI_s4VnCXpma9ha0Qns-32">
          <mxGeometry relative="1" as="geometry" />
        </mxCell>
        <mxCell id="3ZI_s4VnCXpma9ha0Qns-31" value="Progress penarikan kabel (outdoor)" style="rounded=1;whiteSpace=wrap;html=1;shadow=0;strokeColor=default;strokeWidth=1;align=center;verticalAlign=middle;spacingLeft=2;spacingRight=2;spacingTop=2;spacingBottom=2;fontFamily=Verdana;fontSize=8;fontColor=default;labelBackgroundColor=none;fillColor=default;" vertex="1" parent="77e6c97f196da883-6">
          <mxGeometry x="62" y="362" width="120" height="30" as="geometry" />
        </mxCell>
        <mxCell id="3ZI_s4VnCXpma9ha0Qns-44" style="edgeStyle=orthogonalEdgeStyle;shape=connector;rounded=1;orthogonalLoop=1;jettySize=auto;html=1;exitX=0.5;exitY=1;exitDx=0;exitDy=0;entryX=0.5;entryY=0;entryDx=0;entryDy=0;strokeColor=default;strokeWidth=1;align=center;verticalAlign=middle;fontFamily=Helvetica;fontSize=11;fontColor=default;labelBackgroundColor=default;resizable=0;startArrow=none;startFill=0;startSize=5;endArrow=classicThin;endFill=1;endSize=5;" edge="1" parent="77e6c97f196da883-6" source="3ZI_s4VnCXpma9ha0Qns-32" target="3ZI_s4VnCXpma9ha0Qns-36">
          <mxGeometry relative="1" as="geometry" />
        </mxCell>
        <mxCell id="3ZI_s4VnCXpma9ha0Qns-32" value="Instalasi kabel rumah (indoor)" style="rounded=1;whiteSpace=wrap;html=1;shadow=0;strokeColor=default;strokeWidth=1;align=center;verticalAlign=middle;spacingLeft=2;spacingRight=2;spacingTop=2;spacingBottom=2;fontFamily=Verdana;fontSize=8;fontColor=default;labelBackgroundColor=none;fillColor=default;" vertex="1" parent="77e6c97f196da883-6">
          <mxGeometry x="62" y="402" width="120" height="30" as="geometry" />
        </mxCell>
        <mxCell id="3ZI_s4VnCXpma9ha0Qns-45" style="edgeStyle=orthogonalEdgeStyle;shape=connector;rounded=1;orthogonalLoop=1;jettySize=auto;html=1;exitX=0.5;exitY=1;exitDx=0;exitDy=0;entryX=0.5;entryY=0;entryDx=0;entryDy=0;strokeColor=default;strokeWidth=1;align=center;verticalAlign=middle;fontFamily=Helvetica;fontSize=11;fontColor=default;labelBackgroundColor=default;resizable=0;startArrow=none;startFill=0;startSize=5;endArrow=classicThin;endFill=1;endSize=5;" edge="1" parent="77e6c97f196da883-6" source="3ZI_s4VnCXpma9ha0Qns-36" target="3ZI_s4VnCXpma9ha0Qns-37">
          <mxGeometry relative="1" as="geometry" />
        </mxCell>
        <mxCell id="3ZI_s4VnCXpma9ha0Qns-36" value="Registrasi Data Billing System" style="rounded=1;whiteSpace=wrap;html=1;shadow=0;strokeColor=default;strokeWidth=1;align=center;verticalAlign=middle;spacingLeft=2;spacingRight=2;spacingTop=2;spacingBottom=2;fontFamily=Verdana;fontSize=8;fontColor=default;labelBackgroundColor=none;fillColor=default;" vertex="1" parent="77e6c97f196da883-6">
          <mxGeometry x="62" y="442" width="120" height="30" as="geometry" />
        </mxCell>
        <mxCell id="3ZI_s4VnCXpma9ha0Qns-46" style="edgeStyle=orthogonalEdgeStyle;shape=connector;rounded=1;orthogonalLoop=1;jettySize=auto;html=1;exitX=0.5;exitY=1;exitDx=0;exitDy=0;entryX=0.5;entryY=0;entryDx=0;entryDy=0;strokeColor=default;strokeWidth=1;align=center;verticalAlign=middle;fontFamily=Helvetica;fontSize=11;fontColor=default;labelBackgroundColor=default;resizable=0;startArrow=none;startFill=0;startSize=5;endArrow=classicThin;endFill=1;endSize=5;" edge="1" parent="77e6c97f196da883-6" source="3ZI_s4VnCXpma9ha0Qns-37" target="3ZI_s4VnCXpma9ha0Qns-38">
          <mxGeometry relative="1" as="geometry" />
        </mxCell>
        <mxCell id="3ZI_s4VnCXpma9ha0Qns-37" value="Integrasi ONU Router WiFi oleh NOC" style="rounded=1;whiteSpace=wrap;html=1;shadow=0;strokeColor=default;strokeWidth=1;align=center;verticalAlign=middle;spacingLeft=2;spacingRight=2;spacingTop=2;spacingBottom=2;fontFamily=Verdana;fontSize=8;fontColor=default;labelBackgroundColor=none;fillColor=default;" vertex="1" parent="77e6c97f196da883-6">
          <mxGeometry x="62" y="482" width="120" height="30" as="geometry" />
        </mxCell>
        <mxCell id="3ZI_s4VnCXpma9ha0Qns-47" style="edgeStyle=orthogonalEdgeStyle;shape=connector;rounded=1;orthogonalLoop=1;jettySize=auto;html=1;exitX=0.5;exitY=1;exitDx=0;exitDy=0;entryX=0.5;entryY=0;entryDx=0;entryDy=0;strokeColor=default;strokeWidth=1;align=center;verticalAlign=middle;fontFamily=Helvetica;fontSize=11;fontColor=default;labelBackgroundColor=default;resizable=0;startArrow=none;startFill=0;startSize=5;endArrow=classicThin;endFill=1;endSize=5;" edge="1" parent="77e6c97f196da883-6" source="3ZI_s4VnCXpma9ha0Qns-38" target="3ZI_s4VnCXpma9ha0Qns-39">
          <mxGeometry relative="1" as="geometry" />
        </mxCell>
        <mxCell id="3ZI_s4VnCXpma9ha0Qns-38" value="&lt;span style=&quot;background-color: transparent; color: light-dark(rgb(0, 0, 0), rgb(255, 255, 255));&quot;&gt;Edukasi pelanggan:&lt;/span&gt;&lt;br&gt;&lt;span style=&quot;background-color: transparent; color: light-dark(rgb(0, 0, 0), rgb(255, 255, 255));&quot;&gt;- Feature Robot WiFi&lt;/span&gt;&lt;br&gt;&lt;span style=&quot;background-color: transparent; color: light-dark(rgb(0, 0, 0), rgb(255, 255, 255));&quot;&gt;- Feature Dual Band&lt;/span&gt;&lt;br&gt;&lt;span style=&quot;background-color: transparent; color: light-dark(rgb(0, 0, 0), rgb(255, 255, 255));&quot;&gt;- Skema tagihan&lt;/span&gt;&lt;br&gt;&lt;span style=&quot;background-color: transparent; color: light-dark(rgb(0, 0, 0), rgb(255, 255, 255));&quot;&gt;- Prosedur pembayaran&lt;/span&gt;&lt;br&gt;&lt;span style=&quot;background-color: transparent; color: light-dark(rgb(0, 0, 0), rgb(255, 255, 255));&quot;&gt;- Kontak customer service&lt;/span&gt;" style="rounded=1;whiteSpace=wrap;html=1;shadow=0;strokeColor=default;strokeWidth=1;align=left;verticalAlign=middle;spacingLeft=2;spacingRight=2;spacingTop=2;spacingBottom=2;fontFamily=Verdana;fontSize=8;fontColor=default;labelBackgroundColor=none;fillColor=default;" vertex="1" parent="77e6c97f196da883-6">
          <mxGeometry x="62" y="522" width="120" height="70" as="geometry" />
        </mxCell>
        <mxCell id="3ZI_s4VnCXpma9ha0Qns-39" value="Test kapasitas, kecepatan layanan." style="rounded=1;whiteSpace=wrap;html=1;shadow=0;strokeColor=default;strokeWidth=1;align=center;verticalAlign=middle;spacingLeft=2;spacingRight=2;spacingTop=2;spacingBottom=2;fontFamily=Verdana;fontSize=8;fontColor=default;labelBackgroundColor=none;fillColor=default;" vertex="1" parent="77e6c97f196da883-6">
          <mxGeometry x="62" y="603" width="120" height="30" as="geometry" />
        </mxCell>
        <mxCell id="3ZI_s4VnCXpma9ha0Qns-59" style="edgeStyle=orthogonalEdgeStyle;shape=connector;rounded=1;orthogonalLoop=1;jettySize=auto;html=1;exitX=0.5;exitY=1;exitDx=0;exitDy=0;entryX=0.5;entryY=0;entryDx=0;entryDy=0;strokeColor=default;strokeWidth=1;align=center;verticalAlign=middle;fontFamily=Helvetica;fontSize=11;fontColor=default;labelBackgroundColor=default;resizable=0;startArrow=none;startFill=0;startSize=5;endArrow=classicThin;endFill=1;endSize=5;" edge="1" parent="77e6c97f196da883-6" source="3ZI_s4VnCXpma9ha0Qns-51" target="3ZI_s4VnCXpma9ha0Qns-58">
          <mxGeometry relative="1" as="geometry" />
        </mxCell>
        <mxCell id="3ZI_s4VnCXpma9ha0Qns-51" value="IKR Selesai" style="rounded=1;whiteSpace=wrap;html=1;shadow=0;strokeColor=default;strokeWidth=1;align=center;verticalAlign=middle;spacingLeft=2;spacingRight=2;spacingTop=2;spacingBottom=2;fontFamily=Verdana;fontSize=8;fontColor=default;labelBackgroundColor=none;fillColor=default;" vertex="1" parent="77e6c97f196da883-6">
          <mxGeometry x="62" y="736" width="120" height="30" as="geometry" />
        </mxCell>
        <mxCell id="3ZI_s4VnCXpma9ha0Qns-58" value="Update Data Activity Tracker" style="rounded=1;whiteSpace=wrap;html=1;shadow=0;strokeColor=default;strokeWidth=1;align=center;verticalAlign=middle;spacingLeft=2;spacingRight=2;spacingTop=2;spacingBottom=2;fontFamily=Verdana;fontSize=8;fontColor=default;labelBackgroundColor=none;fillColor=default;" vertex="1" parent="77e6c97f196da883-6">
          <mxGeometry x="62" y="801" width="120" height="30" as="geometry" />
        </mxCell>
        <mxCell id="3ZI_s4VnCXpma9ha0Qns-78" style="edgeStyle=orthogonalEdgeStyle;shape=connector;rounded=1;orthogonalLoop=1;jettySize=auto;html=1;exitX=0.5;exitY=1;exitDx=0;exitDy=0;entryX=0;entryY=0.5;entryDx=0;entryDy=0;strokeColor=default;strokeWidth=1;align=center;verticalAlign=middle;fontFamily=Helvetica;fontSize=11;fontColor=default;labelBackgroundColor=default;resizable=0;startArrow=none;startFill=0;startSize=5;endArrow=classicThin;endFill=1;endSize=5;" edge="1" parent="77e6c97f196da883-1" source="3ZI_s4VnCXpma9ha0Qns-75" target="3ZI_s4VnCXpma9ha0Qns-79">
          <mxGeometry relative="1" as="geometry">
            <mxPoint x="605" y="934" as="targetPoint" />
          </mxGeometry>
        </mxCell>
        <mxCell id="3ZI_s4VnCXpma9ha0Qns-86" style="edgeStyle=orthogonalEdgeStyle;shape=connector;rounded=1;orthogonalLoop=1;jettySize=auto;html=1;exitX=0.5;exitY=1;exitDx=0;exitDy=0;entryX=1;entryY=0.5;entryDx=0;entryDy=0;strokeColor=default;strokeWidth=1;align=center;verticalAlign=middle;fontFamily=Helvetica;fontSize=11;fontColor=default;labelBackgroundColor=default;resizable=0;startArrow=none;startFill=0;startSize=5;endArrow=classicThin;endFill=1;endSize=5;" edge="1" parent="77e6c97f196da883-1" source="3ZI_s4VnCXpma9ha0Qns-79" target="3ZI_s4VnCXpma9ha0Qns-85">
          <mxGeometry relative="1" as="geometry" />
        </mxCell>
        <mxCell id="3ZI_s4VnCXpma9ha0Qns-87" value="Tidak" style="edgeLabel;html=1;align=center;verticalAlign=middle;resizable=0;points=[];rounded=1;shadow=0;strokeColor=default;strokeWidth=1;spacingLeft=2;spacingRight=2;spacingTop=2;spacingBottom=2;fontFamily=Helvetica;fontSize=11;fontColor=default;labelBackgroundColor=default;fillColor=none;gradientColor=none;" vertex="1" connectable="0" parent="3ZI_s4VnCXpma9ha0Qns-86">
          <mxGeometry x="-0.5397" y="-1" relative="1" as="geometry">
            <mxPoint x="-11" y="1" as="offset" />
          </mxGeometry>
        </mxCell>
        <mxCell id="3ZI_s4VnCXpma9ha0Qns-88" style="edgeStyle=orthogonalEdgeStyle;shape=connector;rounded=1;orthogonalLoop=1;jettySize=auto;html=1;exitX=0.5;exitY=1;exitDx=0;exitDy=0;entryX=0.5;entryY=1;entryDx=0;entryDy=0;strokeColor=default;strokeWidth=1;align=center;verticalAlign=middle;fontFamily=Helvetica;fontSize=11;fontColor=default;labelBackgroundColor=default;resizable=0;startArrow=none;startFill=0;startSize=5;endArrow=classicThin;endFill=1;endSize=5;" edge="1" parent="77e6c97f196da883-1" source="3ZI_s4VnCXpma9ha0Qns-80" target="3ZI_s4VnCXpma9ha0Qns-85">
          <mxGeometry relative="1" as="geometry" />
        </mxCell>
      </root>
    </mxGraphModel>
  </diagram>
</mxfile>
